<svg width="50" height="45" viewBox="0 0 50 45" fill="none" xmlns="http://www.w3.org/2000/svg">
<path d="M5 5H12.5L17.5 0H32.5L37.5 5H45C46.3261 5 47.5979 5.52678 48.5355 6.46447C49.4732 7.40215 50 8.67392 50 10V40C50 41.3261 49.4732 42.5979 48.5355 43.5355C47.5979 44.4732 46.3261 45 45 45H5C3.67392 45 2.40215 44.4732 1.46447 43.5355C0.526784 42.5979 0 41.3261 0 40V10C0 8.67392 0.526784 7.40215 1.46447 6.46447C2.40215 5.52678 3.67392 5 5 5ZM25 12.5C21.6848 12.5 18.5054 13.817 16.1612 16.1612C13.817 18.5054 12.5 21.6848 12.5 25C12.5 28.3152 13.817 31.4946 16.1612 33.8388C18.5054 36.183 21.6848 37.5 25 37.5C28.3152 37.5 31.4946 36.183 33.8388 33.8388C36.183 31.4946 37.5 28.3152 37.5 25C37.5 21.6848 36.183 18.5054 33.8388 16.1612C31.4946 13.817 28.3152 12.5 25 12.5ZM25 17.5C26.9891 17.5 28.8968 18.2902 30.3033 19.6967C31.7098 21.1032 32.5 23.0109 32.5 25C32.5 26.9891 31.7098 28.8968 30.3033 30.3033C28.8968 31.7098 26.9891 32.5 25 32.5C23.0109 32.5 21.1032 31.7098 19.6967 30.3033C18.2902 28.8968 17.5 26.9891 17.5 25C17.5 23.0109 18.2902 21.1032 19.6967 19.6967C21.1032 18.2902 23.0109 17.5 25 17.5Z" fill="#F2F5F7"/>
</svg>
